<svg width="654" height="654" viewBox="0 0 654 654" fill="none" xmlns="http://www.w3.org/2000/svg">
<g filter="url(#filter0_diig_3_5)">
<path d="M95.6709 422.312L95.6709 230.97L230.97 95.6709L422.312 95.6708L557.611 230.97L557.611 422.312L422.312 557.611L230.97 557.611L95.6709 422.312Z" fill="#CDCBD9"/>
<path d="M97.1709 231.592L231.591 97.1713L421.69 97.1718L556.11 231.591L556.11 421.691L421.691 556.111L231.591 556.111L97.1704 421.69L97.1709 231.592Z" stroke="#665754" stroke-width="3"/>
</g>
<g filter="url(#filter1_dg_3_5)">
<rect x="308" y="99" width="38" height="456" fill="#4E4E4E"/>
<rect x="364" y="99" width="38" height="456" fill="#4E4E4E"/>
<rect x="252" y="99" width="38" height="456" fill="#4E4E4E"/>
</g>
<g filter="url(#filter2_dg_3_5)">
<rect x="98.7" y="346" width="38" height="456" transform="rotate(-90 98.7 346)" fill="#4E4E4E"/>
<rect x="98.7" y="290" width="38" height="456" transform="rotate(-90 98.7 290)" fill="#4E4E4E"/>
<rect x="98.7" y="402" width="38" height="456" transform="rotate(-90 98.7 402)" fill="#4E4E4E"/>
</g>
<g filter="url(#filter3_g_3_5)">
<circle cx="327" cy="327" r="141" fill="#CDCBD9"/>
</g>
<g filter="url(#filter4_dg_3_5)">
<circle cx="327" cy="327" r="112.5" stroke="#4E4E4E" stroke-width="5" shape-rendering="crispEdges"/>
</g>
<g filter="url(#filter5_g_3_5)">
<circle cx="211.5" cy="327.5" r="12.5" fill="#CDCBD9"/>
<circle cx="211.5" cy="327.5" r="10" stroke="#4E4E4E" stroke-width="5"/>
</g>
<g filter="url(#filter6_g_3_5)">
<circle cx="442.5" cy="327.5" r="12.5" fill="#CDCBD9"/>
<circle cx="442.5" cy="327.5" r="10" stroke="#4E4E4E" stroke-width="5"/>
</g>
<g filter="url(#filter7_g_3_5)">
<circle cx="326.5" cy="441.5" r="19.5" fill="#CDCBD9"/>
<circle cx="326.5" cy="441.5" r="17" stroke="#4E4E4E" stroke-width="5"/>
</g>
<g filter="url(#filter8_g_3_5)">
<circle cx="327" cy="247" r="47.5" fill="#CDCBD9" stroke="#4E4E4E" stroke-width="5"/>
<line x1="286.5" y1="221.035" x2="286.5" y2="270.841" stroke="#4E4E4E" stroke-width="3"/>
<line x1="294.5" y1="213.455" x2="294.5" y2="280.586" stroke="#4E4E4E" stroke-width="3"/>
<line x1="302.5" y1="206.959" x2="302.5" y2="286" stroke="#4E4E4E" stroke-width="3"/>
<line y1="-1.5" x2="49.8067" y2="-1.5" transform="matrix(-4.96868e-08 1 1 3.84546e-08 369 221.076)" stroke="#4E4E4E" stroke-width="3"/>
<line y1="-1.5" x2="67.1308" y2="-1.5" transform="matrix(-6.45928e-08 1 1 2.95805e-08 361 213.497)" stroke="#4E4E4E" stroke-width="3"/>
<line y1="-1.5" x2="79.0411" y2="-1.5" transform="matrix(-6.45928e-08 1 1 2.95805e-08 353 207)" stroke="#4E4E4E" stroke-width="3"/>
<line x1="319" y1="226.5" x2="335" y2="226.5" stroke="#4E4E4E" stroke-width="7"/>
<line x1="331.5" y1="223" x2="331.5" y2="272" stroke="#4E4E4E" stroke-width="7"/>
</g>
<g filter="url(#filter9_ig_3_5)">
<path d="M323.418 352.14H315.508C314.062 352.14 312.498 351.953 310.818 351.58C309.185 351.207 307.692 350.483 306.338 349.41C305.545 348.757 304.868 347.987 304.308 347.1C303.795 346.167 303.352 345.187 302.978 344.16C302.652 343.087 302.395 342.013 302.208 340.94C302.068 339.82 301.998 338.723 301.998 337.65C301.998 337.183 301.998 336.74 301.998 336.32C301.998 335.9 302.045 335.48 302.138 335.06C302.465 331 303.982 327.85 306.688 325.61C307.482 324.957 308.462 324.327 309.628 323.72C310.795 323.113 311.938 322.81 313.058 322.81H336.228C336.695 322.81 336.928 323.043 336.928 323.51V331.21C336.928 331.677 336.695 331.91 336.228 331.91H315.998C315.345 331.91 314.738 332.213 314.178 332.82C313.665 333.38 313.292 333.917 313.058 334.43C312.825 334.897 312.685 335.363 312.638 335.83C312.592 336.297 312.568 336.763 312.568 337.23C312.568 337.977 312.615 338.747 312.708 339.54C312.802 340.333 313.128 341.033 313.688 341.64C314.202 342.153 314.902 342.457 315.788 342.55C316.722 342.643 317.725 342.69 318.798 342.69H326.638C328.085 342.69 329.602 342.9 331.188 343.32C332.775 343.693 334.245 344.44 335.598 345.56C336.392 346.213 337.045 347.007 337.558 347.94C338.118 348.873 338.562 349.877 338.888 350.95C339.262 352.023 339.518 353.143 339.658 354.31C339.798 355.477 339.868 356.597 339.868 357.67C339.868 358.183 339.868 358.673 339.868 359.14C339.868 359.56 339.822 359.957 339.728 360.33C339.355 364.577 337.862 367.843 335.248 370.13C334.455 370.783 333.475 371.437 332.308 372.09C331.188 372.697 330.115 373 329.088 373H303.608C303.142 373 302.908 372.767 302.908 372.3V364.6C302.908 364.133 303.142 363.9 303.608 363.9H326.148C326.848 363.9 327.455 363.573 327.968 362.92C328.482 362.22 328.855 361.59 329.088 361.03C329.322 360.517 329.462 360.027 329.508 359.56C329.555 359.093 329.578 358.603 329.578 358.09C329.578 357.343 329.532 356.573 329.438 355.78C329.345 354.94 329.018 354.193 328.458 353.54C327.992 353.027 327.315 352.677 326.428 352.49C325.588 352.257 324.585 352.14 323.418 352.14ZM379.795 322.81C379.935 322.81 380.051 322.88 380.145 323.02C380.238 323.16 380.191 323.393 380.005 323.72L366.985 346.05C366.891 346.143 366.728 346.377 366.495 346.75C366.308 347.123 366.215 347.357 366.215 347.45C366.215 347.59 366.285 347.823 366.425 348.15C366.611 348.477 366.751 348.71 366.845 348.85L380.425 372.09C380.611 372.417 380.658 372.65 380.565 372.79C380.471 372.93 380.355 373 380.215 373H369.575C369.388 373 369.248 372.93 369.155 372.79C369.061 372.65 368.991 372.533 368.945 372.44L357.955 352.84C356.555 350.413 355.855 348.663 355.855 347.59C355.855 347.403 355.878 347.217 355.925 347.03C355.971 346.797 356.065 346.493 356.205 346.12C356.345 345.7 356.555 345.21 356.835 344.65C357.115 344.09 357.488 343.367 357.955 342.48L368.525 323.37C368.571 323.277 368.641 323.16 368.735 323.02C368.828 322.88 368.968 322.81 369.155 322.81H379.795ZM345.075 323.51C345.075 323.043 345.308 322.81 345.775 322.81H354.525C354.991 322.81 355.225 323.043 355.225 323.51V372.3C355.225 372.767 354.991 373 354.525 373H345.775C345.308 373 345.075 372.767 345.075 372.3V323.51Z" fill="#4E4E4E"/>
<line x1="271" y1="349" x2="291.935" y2="349" stroke="#4E4E4E" stroke-width="8"/>
<line x1="294.032" y1="324" x2="294.032" y2="373" stroke="#4E4E4E" stroke-width="8"/>
</g>
<defs>
<filter id="filter0_diig_3_5" x="65.6709" y="69.6708" width="521.94" height="521.94" filterUnits="userSpaceOnUse" color-interpolation-filters="sRGB">
<feFlood flood-opacity="0" result="BackgroundImageFix"/>
<feColorMatrix in="SourceAlpha" type="matrix" values="0 0 0 0 0 0 0 0 0 0 0 0 0 0 0 0 0 0 127 0" result="hardAlpha"/>
<feOffset dy="4"/>
<feGaussianBlur stdDeviation="15"/>
<feComposite in2="hardAlpha" operator="out"/>
<feColorMatrix type="matrix" values="0 0 0 0 0 0 0 0 0 0 0 0 0 0 0 0 0 0 0.25 0"/>
<feBlend mode="normal" in2="BackgroundImageFix" result="effect1_dropShadow_3_5"/>
<feBlend mode="normal" in="SourceGraphic" in2="effect1_dropShadow_3_5" result="shape"/>
<feColorMatrix in="SourceAlpha" type="matrix" values="0 0 0 0 0 0 0 0 0 0 0 0 0 0 0 0 0 0 127 0" result="hardAlpha"/>
<feOffset dx="8" dy="8"/>
<feGaussianBlur stdDeviation="20"/>
<feComposite in2="hardAlpha" operator="arithmetic" k2="-1" k3="1"/>
<feColorMatrix type="matrix" values="0 0 0 0 0.202242 0 0 0 0 0.188189 0 0 0 0 0.188189 0 0 0 0.75 0"/>
<feBlend mode="normal" in2="shape" result="effect2_innerShadow_3_5"/>
<feColorMatrix in="SourceAlpha" type="matrix" values="0 0 0 0 0 0 0 0 0 0 0 0 0 0 0 0 0 0 127 0" result="hardAlpha"/>
<feOffset dx="-8" dy="-8"/>
<feGaussianBlur stdDeviation="15"/>
<feComposite in2="hardAlpha" operator="arithmetic" k2="-1" k3="1"/>
<feColorMatrix type="matrix" values="0 0 0 0 0.893029 0 0 0 0 0.893029 0 0 0 0 0.893029 0 0 0 1 0"/>
<feBlend mode="normal" in2="effect2_innerShadow_3_5" result="effect3_innerShadow_3_5"/>
<feTurbulence type="fractalNoise" baseFrequency="3.3333332538604736 3.3333332538604736" numOctaves="3" seed="5142" />
<feDisplacementMap in="effect3_innerShadow_3_5" scale="6" xChannelSelector="R" yChannelSelector="G" result="displacedImage" width="100%" height="100%" />
<feMerge result="effect4_texture_3_5">
<feMergeNode in="displacedImage"/>
</feMerge>
</filter>
<filter id="filter1_dg_3_5" x="242" y="93" width="170" height="476" filterUnits="userSpaceOnUse" color-interpolation-filters="sRGB">
<feFlood flood-opacity="0" result="BackgroundImageFix"/>
<feColorMatrix in="SourceAlpha" type="matrix" values="0 0 0 0 0 0 0 0 0 0 0 0 0 0 0 0 0 0 127 0" result="hardAlpha"/>
<feOffset dy="4"/>
<feGaussianBlur stdDeviation="5"/>
<feComposite in2="hardAlpha" operator="out"/>
<feColorMatrix type="matrix" values="0 0 0 0 0 0 0 0 0 0 0 0 0 0 0 0 0 0 0.25 0"/>
<feBlend mode="normal" in2="BackgroundImageFix" result="effect1_dropShadow_3_5"/>
<feBlend mode="normal" in="SourceGraphic" in2="effect1_dropShadow_3_5" result="shape"/>
<feTurbulence type="fractalNoise" baseFrequency="2 2" numOctaves="3" seed="9633" />
<feDisplacementMap in="shape" scale="8" xChannelSelector="R" yChannelSelector="G" result="displacedImage" width="100%" height="100%" />
<feMerge result="effect2_texture_3_5">
<feMergeNode in="displacedImage"/>
</feMerge>
</filter>
<filter id="filter2_dg_3_5" x="88.7" y="246" width="476" height="170" filterUnits="userSpaceOnUse" color-interpolation-filters="sRGB">
<feFlood flood-opacity="0" result="BackgroundImageFix"/>
<feColorMatrix in="SourceAlpha" type="matrix" values="0 0 0 0 0 0 0 0 0 0 0 0 0 0 0 0 0 0 127 0" result="hardAlpha"/>
<feOffset dy="4"/>
<feGaussianBlur stdDeviation="5"/>
<feComposite in2="hardAlpha" operator="out"/>
<feColorMatrix type="matrix" values="0 0 0 0 0 0 0 0 0 0 0 0 0 0 0 0 0 0 0.25 0"/>
<feBlend mode="normal" in2="BackgroundImageFix" result="effect1_dropShadow_3_5"/>
<feBlend mode="normal" in="SourceGraphic" in2="effect1_dropShadow_3_5" result="shape"/>
<feTurbulence type="fractalNoise" baseFrequency="2 2" numOctaves="3" seed="8402" />
<feDisplacementMap in="shape" scale="8" xChannelSelector="R" yChannelSelector="G" result="displacedImage" width="100%" height="100%" />
<feMerge result="effect2_texture_3_5">
<feMergeNode in="displacedImage"/>
</feMerge>
</filter>
<filter id="filter3_g_3_5" x="182" y="182" width="290" height="290" filterUnits="userSpaceOnUse" color-interpolation-filters="sRGB">
<feFlood flood-opacity="0" result="BackgroundImageFix"/>
<feBlend mode="normal" in="SourceGraphic" in2="BackgroundImageFix" result="shape"/>
<feTurbulence type="fractalNoise" baseFrequency="2 2" numOctaves="3" seed="6530" />
<feDisplacementMap in="shape" scale="8" xChannelSelector="R" yChannelSelector="G" result="displacedImage" width="100%" height="100%" />
<feMerge result="effect1_texture_3_5">
<feMergeNode in="displacedImage"/>
</feMerge>
</filter>
<filter id="filter4_dg_3_5" x="192" y="192" width="270" height="270" filterUnits="userSpaceOnUse" color-interpolation-filters="sRGB">
<feFlood flood-opacity="0" result="BackgroundImageFix"/>
<feColorMatrix in="SourceAlpha" type="matrix" values="0 0 0 0 0 0 0 0 0 0 0 0 0 0 0 0 0 0 127 0" result="hardAlpha"/>
<feOffset/>
<feGaussianBlur stdDeviation="10"/>
<feComposite in2="hardAlpha" operator="out"/>
<feColorMatrix type="matrix" values="0 0 0 0 0 0 0 0 0 0 0 0 0 0 0 0 0 0 0.5 0"/>
<feBlend mode="normal" in2="BackgroundImageFix" result="effect1_dropShadow_3_5"/>
<feBlend mode="normal" in="SourceGraphic" in2="effect1_dropShadow_3_5" result="shape"/>
<feTurbulence type="fractalNoise" baseFrequency="3.3333332538604736 3.3333332538604736" numOctaves="3" seed="4733" />
<feDisplacementMap in="shape" scale="4" xChannelSelector="R" yChannelSelector="G" result="displacedImage" width="100%" height="100%" />
<feMerge result="effect2_texture_3_5">
<feMergeNode in="displacedImage"/>
</feMerge>
</filter>
<filter id="filter5_g_3_5" x="196" y="312" width="31" height="31" filterUnits="userSpaceOnUse" color-interpolation-filters="sRGB">
<feFlood flood-opacity="0" result="BackgroundImageFix"/>
<feBlend mode="normal" in="SourceGraphic" in2="BackgroundImageFix" result="shape"/>
<feTurbulence type="fractalNoise" baseFrequency="2 2" numOctaves="3" seed="6745" />
<feDisplacementMap in="shape" scale="6" xChannelSelector="R" yChannelSelector="G" result="displacedImage" width="100%" height="100%" />
<feMerge result="effect1_texture_3_5">
<feMergeNode in="displacedImage"/>
</feMerge>
</filter>
<filter id="filter6_g_3_5" x="427" y="312" width="31" height="31" filterUnits="userSpaceOnUse" color-interpolation-filters="sRGB">
<feFlood flood-opacity="0" result="BackgroundImageFix"/>
<feBlend mode="normal" in="SourceGraphic" in2="BackgroundImageFix" result="shape"/>
<feTurbulence type="fractalNoise" baseFrequency="2 2" numOctaves="3" seed="6745" />
<feDisplacementMap in="shape" scale="6" xChannelSelector="R" yChannelSelector="G" result="displacedImage" width="100%" height="100%" />
<feMerge result="effect1_texture_3_5">
<feMergeNode in="displacedImage"/>
</feMerge>
</filter>
<filter id="filter7_g_3_5" x="304" y="419" width="45" height="45" filterUnits="userSpaceOnUse" color-interpolation-filters="sRGB">
<feFlood flood-opacity="0" result="BackgroundImageFix"/>
<feBlend mode="normal" in="SourceGraphic" in2="BackgroundImageFix" result="shape"/>
<feTurbulence type="fractalNoise" baseFrequency="2 2" numOctaves="3" seed="6745" />
<feDisplacementMap in="shape" scale="6" xChannelSelector="R" yChannelSelector="G" result="displacedImage" width="100%" height="100%" />
<feMerge result="effect1_texture_3_5">
<feMergeNode in="displacedImage"/>
</feMerge>
</filter>
<filter id="filter8_g_3_5" x="275" y="195" width="104" height="104" filterUnits="userSpaceOnUse" color-interpolation-filters="sRGB">
<feFlood flood-opacity="0" result="BackgroundImageFix"/>
<feBlend mode="normal" in="SourceGraphic" in2="BackgroundImageFix" result="shape"/>
<feTurbulence type="fractalNoise" baseFrequency="2 2" numOctaves="3" seed="5881" />
<feDisplacementMap in="shape" scale="4" xChannelSelector="R" yChannelSelector="G" result="displacedImage" width="100%" height="100%" />
<feMerge result="effect1_texture_3_5">
<feMergeNode in="displacedImage"/>
</feMerge>
</filter>
<filter id="filter9_ig_3_5" x="269" y="320.81" width="113.705" height="56.19" filterUnits="userSpaceOnUse" color-interpolation-filters="sRGB">
<feFlood flood-opacity="0" result="BackgroundImageFix"/>
<feBlend mode="normal" in="SourceGraphic" in2="BackgroundImageFix" result="shape"/>
<feColorMatrix in="SourceAlpha" type="matrix" values="0 0 0 0 0 0 0 0 0 0 0 0 0 0 0 0 0 0 127 0" result="hardAlpha"/>
<feOffset dy="4"/>
<feGaussianBlur stdDeviation="2"/>
<feComposite in2="hardAlpha" operator="arithmetic" k2="-1" k3="1"/>
<feColorMatrix type="matrix" values="0 0 0 0 0 0 0 0 0 0 0 0 0 0 0 0 0 0 0.25 0"/>
<feBlend mode="normal" in2="shape" result="effect1_innerShadow_3_5"/>
<feTurbulence type="fractalNoise" baseFrequency="3.3333332538604736 3.3333332538604736" numOctaves="3" seed="143" />
<feDisplacementMap in="effect1_innerShadow_3_5" scale="4" xChannelSelector="R" yChannelSelector="G" result="displacedImage" width="100%" height="100%" />
<feMerge result="effect2_texture_3_5">
<feMergeNode in="displacedImage"/>
</feMerge>
</filter>
</defs>
</svg>
